ply
format ascii 1.0
comment Created by Blender 2.69 (sub 0) - www.blender.org, source file: 'camera.blend'
element vertex 90
property float x
property float y
property float z
element face 47
property list uchar uint vertex_indices
end_header
-0.343805 0.209245 -2.232105
-0.343805 -0.263112 -2.232105
0.344588 -0.263112 -2.232105
0.344588 0.209245 -2.232105
0.824599 0.473781 -2.920499
-0.823817 0.473781 -2.920499
0.824599 -0.527647 -2.920499
-0.823817 -0.527648 -2.920499
-0.361629 -0.429917 1.228679
0.361628 -0.429917 1.228679
0.361628 0.866025 0.500001
-0.361629 0.866025 0.500001
0.361629 0.866026 -1.195039
-0.361628 0.866026 -1.195039
0.361629 0.463361 -1.695040
-0.361628 0.463360 -1.695040
-0.361628 -0.866025 -1.427311
0.361629 -0.866025 -1.427311
0.361629 -0.866026 0.824351
-0.361629 -0.866026 0.824351
-0.000876 0.278025 -1.683523
-0.000876 0.278025 -2.229859
-0.182500 0.219012 -2.229859
-0.182500 0.219012 -1.683523
-0.294750 0.064513 -2.229859
-0.294750 0.064513 -1.683523
-0.294750 -0.126457 -2.229859
-0.294750 -0.126458 -1.683523
-0.182500 -0.280956 -2.229859
-0.182500 -0.280956 -1.683523
-0.000876 -0.339969 -2.229859
-0.000876 -0.339969 -1.683523
0.180747 -0.280956 -2.229859
0.180748 -0.280956 -1.683524
0.292997 -0.126457 -2.229859
0.292997 -0.126458 -1.683524
0.292997 0.064513 -2.229859
0.292997 0.064513 -1.683523
0.180747 0.219012 -2.229859
0.180748 0.219012 -1.683523
-0.361628 -0.604047 -1.690424
0.361629 -0.604047 -1.690424
-0.150000 1.696288 1.749043
0.150000 1.696288 1.749043
0.150000 1.562314 1.249043
-0.150000 1.562314 1.249043
0.150000 1.196288 0.883017
-0.150000 1.196288 0.883017
0.150000 0.696288 0.749042
-0.150000 0.696288 0.749042
0.150000 0.196288 0.883017
-0.150000 0.196288 0.883017
0.150000 -0.169737 1.249042
-0.150000 -0.169737 1.249042
0.150000 -0.303712 1.749042
-0.150000 -0.303712 1.749042
0.150000 -0.169737 2.249043
-0.150000 -0.169737 2.249043
0.150000 0.196288 2.615068
-0.150000 0.196288 2.615068
0.150000 0.696288 2.749043
-0.150000 0.696288 2.749043
0.150000 1.196288 2.615068
-0.150000 1.196288 2.615068
0.150000 1.562313 2.249043
-0.150000 1.562313 2.249043
-0.150000 2.758789 -0.000000
0.150000 2.758789 0.000000
0.150000 2.624814 -0.500000
-0.150000 2.624814 -0.500000
0.150000 2.258789 -0.866025
-0.150000 2.258789 -0.866025
0.150000 1.758789 -1.000000
-0.150000 1.758789 -1.000000
0.150000 1.258789 -0.866025
-0.150000 1.258789 -0.866025
0.150000 0.892764 -0.500000
-0.150000 0.892764 -0.500000
0.150000 0.758789 -0.000000
-0.150000 0.758789 -0.000000
0.150000 0.892764 0.500000
-0.150000 0.892764 0.500000
0.150000 1.258789 0.866025
-0.150000 1.258789 0.866025
0.150000 1.758789 1.000000
-0.150000 1.758789 1.000000
0.150000 2.258789 0.866026
-0.150000 2.258789 0.866026
0.150000 2.624814 0.500001
-0.150000 2.624814 0.500001
4 0 1 2 3
4 3 4 5 0
4 4 6 7 5
4 1 7 6 2
4 1 0 5 7
4 6 4 3 2
4 8 9 10 11
4 11 10 12 13
4 13 12 14 15
4 16 17 18 19
4 19 18 9 8
4 20 21 22 23
4 23 22 24 25
4 25 24 26 27
4 27 26 28 29
4 29 28 30 31
4 31 30 32 33
4 33 32 34 35
4 35 34 36 37
4 37 36 38 39
4 39 38 21 20
4 17 16 40 41
4 15 14 41 40
4 42 43 44 45
4 45 44 46 47
4 47 46 48 49
4 49 48 50 51
4 51 50 52 53
4 53 52 54 55
4 55 54 56 57
4 57 56 58 59
4 59 58 60 61
4 61 60 62 63
4 63 62 64 65
4 65 64 43 42
4 66 67 68 69
4 69 68 70 71
4 71 70 72 73
4 73 72 74 75
4 75 74 76 77
4 77 76 78 79
4 79 78 80 81
4 81 80 82 83
4 83 82 84 85
4 85 84 86 87
4 87 86 88 89
4 89 88 67 66
